<svg xmlns="http://www.w3.org/2000/svg"
     aria-hidden="true"
     focusable="false"
     style="position:absolute;width:0;height:0;overflow:hidden">

  <!-- INFO -->
  <symbol id="icon-info" viewBox="0 0 24 24" class="icon-info" fill="none" stroke="currentColor" stroke-width="2" stroke-linecap="round" stroke-linejoin="round">
  <circle cx="12" cy="12" r="10"/><path d="M12 16v-4"/><path d="M12 8h.01"/>
  </symbol>

  <!-- SQUARE (square) -->
  <symbol id="icon-square" viewBox="0 0 24 24" class="icon-square" fill="none" stroke="currentColor" stroke-width="2" stroke-linecap="round" stroke-linejoin="round">
  <rect width="18" height="18" x="3" y="3" rx="2"/>
  </symbol>

    <!-- SQUAREPLUS (square-plus) -->
  <symbol id="icon-square-plus" viewBox="0 0 24 24" class="icon-square-plus" fill="none" stroke="currentColor" stroke-width="2" stroke-linecap="round" stroke-linejoin="round">
  <rect width="18" height="18" x="3" y="3" rx="2"/><path d="M8 12h8"/><path d="M12 8v8"/>
  </symbol>

  <!-- SQUARECHECK (square-check) -->
  <symbol id="icon-square-check" viewBox="0 0 24 24" class="icon-square-check" fill="none" stroke="currentColor" stroke-width="2" stroke-linecap="round" stroke-linejoin="round">
  <rect width="18" height="18" x="3" y="3" rx="2"/><path d="m9 12 2 2 4-4"/>
  </symbol>

  <!-- CLOSE -->
  <symbol id="icon-close" viewBox="0 0 24 24"><path d="M18 6 6 18"/><path d="m6 6 12 12"/>
    <path d="M18 6 6 18"/>
    <path d="m6 6 12 12"/>
  </symbol>

  <!-- REFRESH -->
  <symbol id="icon-refresh" viewBox="0 0 24 24">
  <path d="M21 12a9 9 0 1 1-9-9c2.52 0 4.93 1 6.74 2.74L21 8"/>
  <path d="M21 3v5h-5"/>
  </symbol>

    <!-- LIST -->
  <symbol id="icon-list" viewBox="0 0 24 24">
    <line x1="8" x2="21" y1="6" y2="6"/>
    <line x1="8" x2="21" y1="12" y2="12"/>
    <line x1="8" x2="21" y1="18" y2="18"/>
    <line x1="3" x2="3.01" y1="6" y2="6"/>
    <line x1="3" x2="3.01" y1="12" y2="12"/>
    <line x1="3" x2="3.01" y1="18" y2="18"/>
  </symbol>

  <!-- TREE -->
  <symbol id="icon-tree" viewBox="0 0 24 24">
    <path d="M20 10a1 1 0 0 0 1-1V6a1 1 0 0 0-1-1h-2.5a1 1 0 0 1-.8-.4l-.9-1.2A1 1 0 0 0 15 3h-2a1 1 0 0 0-1 1v5a1 1 0 0 0 1 1Z"/>
    <path d="M20 21a1 1 0 0 0 1-1v-3a1 1 0 0 0-1-1h-2.9a1 1 0 0 1-.88-.55l-.42-.85a1 1 0 0 0-.92-.6H13a1 1 0 0 0-1 1v5a1 1 0 0 0 1 1Z"/>
    <path d="M3 5a2 2 0 0 0 2 2h3"/>
    <path d="M3 3v13a2 2 0 0 0 2 2h3"/>
  </symbol>

</svg>
